<?xml version="1.0" encoding="UTF-8" standalone="no"?>
<!-- Created with Inkscape (http://www.inkscape.org/) -->

<svg
   version="1.1"
   id="svg1"
   width="1024"
   height="1024"
   viewBox="0 0 1024 1024"
   sodipodi:docname="Spriggan Logo.svg"
   inkscape:version="1.4.2 (f4327f4, 2025-05-13)"
   xmlns:inkscape="http://www.inkscape.org/namespaces/inkscape"
   xmlns:sodipodi="http://sodipodi.sourceforge.net/DTD/sodipodi-0.dtd"
   xmlns="http://www.w3.org/2000/svg"
   xmlns:svg="http://www.w3.org/2000/svg">
  <defs
     id="defs1" />
  <sodipodi:namedview
     id="namedview1"
     pagecolor="#ffffff"
     bordercolor="#000000"
     borderopacity="0.25"
     inkscape:showpageshadow="2"
     inkscape:pageopacity="0.0"
     inkscape:pagecheckerboard="0"
     inkscape:deskcolor="#d1d1d1"
     inkscape:zoom="0.29520327"
     inkscape:cx="1600.592"
     inkscape:cy="303.18092"
     inkscape:window-width="1920"
     inkscape:window-height="1057"
     inkscape:window-x="-8"
     inkscape:window-y="-8"
     inkscape:window-maximized="1"
     inkscape:current-layer="g1" />
  <g
     inkscape:groupmode="layer"
     inkscape:label="Image"
     id="g1">
    <path
       style="fill:#ffffff"
       d="m 256.25619,736.37865 3e-5,-17.75 H 362.5261 468.79598 l 15.74265,-11 c 8.65843,-6.05 22.32693,-15.6125 30.37453,-21.25 8.0475,-5.6375 14.9431,-10.25 15.3236,-10.25 0.3804,0 12.3084,8.775 26.5066,19.5 l 25.815,19.5 h 63.8489 63.8489 v 19.5 19.50003 h -227 -227 z m 405.19417,-115 c 0.8273,-0.9625 11.5432,-14.575 23.813,-30.25 12.2698,-15.675 22.9126,-29.15893 23.6508,-29.96429 1.1252,-1.22778 1.342,3.65792 1.342,30.25 v 31.71429 h -25.155 c -23.8635,0 -25.0778,-0.0898 -23.6508,-1.75 z m -398.1942,-27.63603 c 0,-0.21232 3.0375,-2.1933 6.75,-4.40218 5.69373,-3.38767 50.33481,-32.38754 136.45652,-88.64527 l 17.70651,-11.56652 h 46.11129 46.11128 l 42.6822,-40.18716 c 23.4752,-22.10294 47.7654,-45.10723 53.9782,-51.12065 6.2128,-6.01342 11.4283,-10.76669 11.59,-10.56284 1.2296,1.55038 19.5597,28.57502 36.7447,54.174 l 20.6787,30.80335 -13.5477,18.69665 c -37.5274,51.79008 -45.0476,60.51816 -65.4455,75.95732 -7.5383,5.70573 -25.9617,15.09794 -36.7636,18.74204 -9.0349,3.04797 -24.9344,6.10401 -38.9086,7.47861 -9.6683,0.95104 -264.144,1.56053 -264.144,0.63265 z M 382.01093,445.86599 c -2.44166,-3.74511 -32.01812,-53.51077 -38.73085,-65.16893 -7.31334,-12.70126 -7.61315,-8.97185 2.65633,-33.04333 10.21986,-23.9552 19.05388,-38.8617 31.95615,-53.92272 12.26212,-14.31378 31.80113,-29.30586 50.25132,-38.55732 9.95519,-4.99182 27.72187,-11.05437 41.61228,-14.19941 l 10,-2.26418 137.9546,-0.32121 137.95472,-0.32121 -13.95472,9.33608 c -27.7064,18.53647 -62.4676,42.34729 -107.4546,73.60468 -10.725,7.45182 -25.9932,17.95235 -33.9293,23.33449 l -14.4292,9.78572 -49.5708,0.0476 -49.5707,0.0476 -22.5,20.53151 c -25.1995,22.99482 -22.52037,20.56192 -49.00138,44.49796 -10.72424,9.69358 -22.2631,20.15038 -25.64191,23.23733 -6.14114,5.61069 -6.1438,5.61187 -7.60194,3.37532 z M 297.63737,286.03265 c -0.61533,-0.7722 -10.12438,-16.929 -21.13122,-35.904 -11.00684,-18.975 -28.39089,-48.82737 -38.63121,-66.3386 -10.24033,-17.51123 -18.61878,-32.02373 -18.61878,-32.25 0,-0.22627 60.525,-0.4114 134.5,-0.4114 h 134.5 v 17 17 h -94.49092 -94.49092 l -0.25908,51.154 c -0.19211,37.93157 -0.54827,50.79109 -1.37787,49.75 z"
       id="path1" />
  </g>
</svg>
